<svg width="20" height="20" viewBox="0 0 20 20" fill="none" xmlns="http://www.w3.org/2000/svg">
<path d="M10.1052 17.6572C8.75981 17.6573 7.43529 17.661 6.1108 17.656C5.47152 17.6536 4.868 17.5136 4.33141 17.1439C3.56319 16.6146 3.12942 15.8884 3.01854 14.9617C2.98106 14.6484 2.9855 14.3359 2.98532 14.0226C2.98418 11.9452 2.98124 9.86784 2.98688 7.79047C2.98853 7.18264 3.10834 6.59626 3.44277 6.07713C4.00958 5.19727 4.8139 4.70233 5.86843 4.66988C6.59972 4.64739 7.33222 4.66502 8.06416 4.6615C8.37737 4.66 8.69058 4.6443 9.0037 4.6468C9.16915 4.64812 9.21885 4.58022 9.21726 4.42079C9.21101 3.79346 9.21203 3.166 9.21661 2.53863C9.21994 2.08072 9.41691 1.79825 9.79042 1.69538C10.2218 1.57659 10.6526 1.83663 10.7398 2.27486C10.7641 2.39689 10.7764 2.52322 10.7772 2.6477C10.7813 3.2193 10.7864 3.79108 10.7756 4.3625C10.7718 4.56323 10.8206 4.64285 11.0401 4.64928C12.0369 4.67848 13.0336 4.64751 14.0302 4.66474C15.3005 4.68669 16.3235 5.39247 16.7935 6.57406C16.9074 6.86028 16.9718 7.16196 16.9796 7.47011C17.0421 9.92342 16.9906 12.377 16.9745 14.8302C16.9651 16.2591 15.7605 17.4913 14.3279 17.6271C14.0912 17.6495 13.8555 17.6579 13.6186 17.6578C12.4544 17.6575 11.2903 17.6574 10.1052 17.6572ZM5.95665 6.19873C5.14183 6.25769 4.57083 6.84092 4.55068 7.65528C4.53741 8.19173 4.54724 8.72876 4.54703 9.26553C4.54634 11.0223 4.54327 12.779 4.54621 14.5358C4.54776 15.4582 5.12832 16.089 6.01617 16.0924C8.66519 16.1027 11.3143 16.1025 13.9633 16.0919C14.8446 16.0884 15.4482 15.453 15.4493 14.569C15.4519 12.2964 15.4524 10.0238 15.4491 7.75115C15.4477 6.82424 14.826 6.19846 13.901 6.19729C11.2659 6.19395 8.63075 6.19697 5.95665 6.19873Z" fill="#175CD3"/>
<path d="M2.04285 9.95224C2.04287 11.4375 2.04304 12.9018 2.04273 14.3661C2.04267 14.6524 2.04169 14.6472 1.75319 14.6542C1.4501 14.6616 1.15183 14.6391 0.875632 14.5068C0.309538 14.2355 0.0295189 13.7573 0.014838 13.1523C-0.00951066 12.1488 0.00137851 11.1442 0.0104839 10.1401C0.0179938 9.31198 0.675771 8.66148 1.5041 8.64164C2.04321 8.62873 2.04319 8.62873 2.043 9.15732C2.04291 9.41532 2.04289 9.67332 2.04285 9.95224Z" fill="#175CD3"/>
<path d="M17.9571 12.2535C17.9572 11.1178 17.9609 10.0029 17.9537 8.88811C17.9525 8.70065 18.0038 8.63452 18.1993 8.63584C18.5024 8.63789 18.7991 8.6566 19.0781 8.78055C19.6755 9.04596 19.9734 9.52828 19.9865 10.1635C20.0069 11.1525 20.0012 12.1424 19.9892 13.1316C19.9787 14.0024 19.308 14.6504 18.4317 14.6507C17.876 14.6509 17.963 14.727 17.9585 14.1767C17.9533 13.5426 17.9572 12.9085 17.9571 12.2535Z" fill="#175CD3"/>
<path d="M7.18423 10.8824C6.30817 10.6561 5.95695 9.60421 6.49936 8.87632C6.86557 8.3849 7.54158 8.25056 8.11779 8.53835C8.61729 8.78783 8.88189 9.44895 8.71347 10.0267C8.54688 10.5982 7.98596 10.9752 7.38647 10.9171C7.32431 10.9111 7.26295 10.8967 7.18423 10.8824Z" fill="#175CD3"/>
<path d="M13.715 9.94539C13.5127 10.8951 12.3152 11.2591 11.5974 10.5615C11.2148 10.1898 11.1208 9.56158 11.3772 9.03601C11.5804 8.61972 12.159 8.32885 12.6444 8.39895C13.2112 8.48079 13.6175 8.87075 13.7224 9.41281C13.7564 9.5885 13.7567 9.75657 13.715 9.94539Z" fill="#175CD3"/>
<path d="M7.89962 14.4793C7.77549 14.6075 7.63474 14.6531 7.47469 14.6524C7.15503 14.6511 6.8353 14.6557 6.51571 14.6509C6.18519 14.6459 5.99033 14.4493 5.99206 14.1335C5.99377 13.8241 6.19491 13.6272 6.52563 13.622C6.83131 13.6171 7.13718 13.618 7.4429 13.6218C7.95273 13.6281 8.17144 14.0265 7.89962 14.4793Z" fill="#175CD3"/>
<path d="M9.77272 14.6528C9.65464 14.6522 9.55688 14.6562 9.45976 14.65C9.17641 14.6319 8.98053 14.4293 8.97081 14.1495C8.96159 13.8843 9.16241 13.6398 9.4366 13.6278C9.80482 13.6117 10.1751 13.6103 10.543 13.6298C10.8479 13.646 11.0078 13.855 10.9989 14.168C10.9909 14.4514 10.8014 14.6409 10.5035 14.6502C10.267 14.6576 10.0301 14.6524 9.77272 14.6528Z" fill="#175CD3"/>
<path d="M13.8354 13.7484C14.0105 13.9434 14.0594 14.1498 13.9482 14.3761C13.8383 14.5997 13.6393 14.6573 13.407 14.6536C13.1073 14.6488 12.8075 14.6552 12.5078 14.6511C12.1739 14.6466 11.9747 14.4514 11.9753 14.1378C11.9759 13.8308 12.1819 13.6276 12.5103 13.6221C12.8239 13.6169 13.1376 13.6214 13.4513 13.6214C13.5875 13.6214 13.7136 13.6526 13.8354 13.7484Z" fill="#175CD3"/>
</svg>
