<svg width="18" height="22" viewBox="0 0 18 22" fill="none" xmlns="http://www.w3.org/2000/svg">
<path d="M14.9496 11.6995C14.9715 10.0012 15.8835 8.39428 17.3304 7.50475C16.4177 6.20115 14.8888 5.37463 13.2982 5.32487C11.6017 5.14679 9.95696 6.34004 9.09244 6.34004C8.21119 6.34004 6.88013 5.34255 5.4468 5.37204C3.57851 5.4324 1.8368 6.4946 0.927845 8.12798C-1.02606 11.5109 0.431377 16.4826 2.30305 19.217C3.23949 20.556 4.33392 22.0517 5.76596 21.9987C7.1673 21.9405 7.69067 21.1051 9.3822 21.1051C11.058 21.1051 11.5491 21.9987 13.0102 21.9649C14.5139 21.9405 15.4613 20.62 16.3648 19.2683C17.0377 18.3143 17.5554 17.2598 17.8989 16.144C16.1318 15.3966 14.9517 13.6182 14.9496 11.6995Z" fill="white"/>
<path d="M12.1898 3.52655C13.0097 2.54231 13.4136 1.27724 13.3158 0C12.0632 0.131561 10.9062 0.730218 10.0752 1.67669C9.26267 2.60144 8.8398 3.84425 8.91975 5.07268C10.1728 5.08558 11.4046 4.50315 12.1898 3.52655Z" fill="white"/>
</svg>
