<svg width="18" height="17" viewBox="0 0 18 17" fill="none" xmlns="http://www.w3.org/2000/svg">
<path d="M8.4423 0.312814C8.61578 -0.104302 9.20668 -0.104302 9.38016 0.312814L11.4788 5.35855C11.5519 5.5344 11.7173 5.65455 11.9072 5.66977L17.3545 6.10647C17.8048 6.14257 17.9874 6.70454 17.6443 6.99844L13.494 10.5536C13.3494 10.6775 13.2862 10.8719 13.3304 11.0571L14.5984 16.3728C14.7032 16.8122 14.2251 17.1595 13.8396 16.924L9.17596 14.0755C9.01343 13.9762 8.80903 13.9762 8.6465 14.0755L3.98285 16.924C3.59732 17.1595 3.11928 16.8122 3.2241 16.3728L4.49207 11.0571C4.53626 10.8719 4.4731 10.6775 4.32846 10.5536L0.178193 6.99844C-0.164897 6.70454 0.017698 6.14257 0.468009 6.10647L5.91531 5.66977C6.10515 5.65455 6.27052 5.5344 6.34366 5.35855L8.4423 0.312814Z" fill="#FDB022"/>
</svg>
