<svg width="18" height="17" viewBox="0 0 18 17" fill="none" xmlns="http://www.w3.org/2000/svg">
<path d="M8.44225 0.312843C8.61574 -0.10427 9.20663 -0.10427 9.38011 0.312843L11.4787 5.35855C11.5519 5.5344 11.7173 5.65455 11.9071 5.66977L17.3544 6.10647C17.8047 6.14257 17.9873 6.70454 17.6442 6.99843L13.4939 10.5536C13.3493 10.6775 13.2861 10.8719 13.3303 11.0571L14.5983 16.3727C14.7031 16.8121 14.2251 17.1595 13.8395 16.924L9.17591 14.0755C9.01339 13.9762 8.80898 13.9762 8.64645 14.0755L3.98283 16.924C3.5973 17.1595 3.11926 16.8121 3.22408 16.3727L4.49205 11.0571C4.53624 10.8719 4.47307 10.6775 4.32844 10.5536L0.178194 6.99843C-0.164894 6.70454 0.0176998 6.14257 0.468009 6.10647L5.91528 5.66977C6.10512 5.65455 6.27048 5.5344 6.34362 5.35856L8.44225 0.312843Z" fill="#F2F4F7"/>
</svg>
