<svg width="85" height="18" viewBox="0 0 85 18" fill="none" xmlns="http://www.w3.org/2000/svg">
<path d="M27.1656 4.71643C24.8074 4.71643 22.8853 6.51016 22.8853 8.98067C22.8853 11.4361 24.8074 13.2449 27.1656 13.2449C29.5248 13.2449 31.4469 11.4361 31.4469 8.98067C31.4459 6.51016 29.5238 4.71643 27.1656 4.71643ZM27.1656 11.5665C25.8732 11.5665 24.7592 10.5007 24.7592 8.98167C24.7592 7.44662 25.8742 6.39686 27.1656 6.39686C28.458 6.39686 29.5719 7.44662 29.5719 8.98167C29.5719 10.4997 28.458 11.5665 27.1656 11.5665ZM17.827 4.71643C15.4688 4.71643 13.5467 6.51016 13.5467 8.98067C13.5467 11.4361 15.4688 13.2449 17.827 13.2449C20.1862 13.2449 22.1083 11.4361 22.1083 8.98067C22.1083 6.51016 20.1862 4.71643 17.827 4.71643ZM17.827 11.5665C16.5346 11.5665 15.4206 10.5007 15.4206 8.98167C15.4206 7.44662 16.5356 6.39686 17.827 6.39686C19.1194 6.39686 20.2333 7.44662 20.2333 8.98167C20.2343 10.4997 19.1194 11.5665 17.827 11.5665ZM6.71971 6.02588V7.83465H11.0491C10.9198 8.85233 10.5809 9.59529 10.0635 10.1116C9.43386 10.7413 8.44826 11.4361 6.71971 11.4361C4.05468 11.4361 1.97119 9.28748 1.97119 6.62245C1.97119 3.95743 4.05468 1.80877 6.71971 1.80877C8.1575 1.80877 9.20727 2.37426 9.98231 3.10117L11.2587 1.82481C10.1758 0.791085 8.73903 8.87348e-07 6.71971 8.87348e-07C3.06909 8.87348e-07 -1.83589e-07 2.97183 -1.83589e-07 6.62245C-1.83589e-07 10.2731 3.06909 13.2449 6.71971 13.2449C8.6899 13.2449 10.1768 12.5982 11.3389 11.387C12.534 10.1919 12.906 8.51143 12.906 7.15485C12.906 6.73575 12.8739 6.34773 12.8088 6.02488H6.71971V6.02588ZM52.1474 7.43058C51.7925 6.47807 50.7096 4.71643 48.4968 4.71643C46.3 4.71643 44.4742 6.44499 44.4742 8.98067C44.4742 11.371 46.284 13.2449 48.7064 13.2449C50.6605 13.2449 51.7915 12.0498 52.2607 11.3549L50.8069 10.3854C50.3226 11.0962 49.6599 11.5645 48.7064 11.5645C47.7538 11.5645 47.0751 11.1283 46.6389 10.2721L52.3409 7.91385L52.1474 7.43058ZM46.3321 8.85233C46.284 7.20398 47.6085 6.36477 48.562 6.36477C49.3049 6.36477 49.9346 6.73675 50.1451 7.26916L46.3321 8.85233ZM41.6969 12.9872H43.5698V0.453195H41.6969V12.9872ZM38.6268 5.66994H38.5626C38.1425 5.16862 37.3344 4.71643 36.3177 4.71643C34.1851 4.71643 32.2309 6.59037 32.2309 8.99771C32.2309 11.388 34.1851 13.2459 36.3177 13.2459C37.3354 13.2459 38.1425 12.7937 38.5626 12.2774H38.6268V12.891C38.6268 14.5223 37.7545 15.3946 36.3498 15.3946C35.2028 15.3946 34.4919 14.5714 34.2011 13.8766L32.5698 14.5554C33.0381 15.6853 34.2813 17.075 36.3498 17.075C38.5466 17.075 40.4045 15.7826 40.4045 12.6323V4.97611H38.6278V5.66994H38.6268ZM36.4791 11.5665C35.1867 11.5665 34.1049 10.4836 34.1049 8.99771C34.1049 7.49475 35.1867 6.39686 36.4791 6.39686C37.7545 6.39686 38.7561 7.49475 38.7561 8.99771C38.7561 10.4836 37.7545 11.5665 36.4791 11.5665ZM60.9246 0.453195H56.4417V12.9872H58.3117V8.23871H60.9236C62.997 8.23871 65.0364 6.73776 65.0364 4.34645C65.0364 1.95515 62.998 0.453195 60.9246 0.453195ZM60.9727 6.49411H58.3117V2.19779H60.9727C62.3714 2.19779 63.1655 3.35584 63.1655 4.34645C63.1655 5.31701 62.3714 6.49411 60.9727 6.49411ZM72.5352 4.69437C71.1806 4.69437 69.7779 5.29094 69.1974 6.61343L70.8577 7.30625C71.2127 6.61343 71.8744 6.38683 72.5672 6.38683C73.5348 6.38683 74.5184 6.96736 74.5344 7.99908V8.12842C74.1955 7.93491 73.4696 7.64515 72.5833 7.64515C70.7936 7.64515 68.9708 8.62874 68.9708 10.4666C68.9708 12.144 70.4386 13.2238 72.083 13.2238C73.3403 13.2238 74.0341 12.6594 74.4693 11.9976H74.5334V12.9652H76.3402V8.1595C76.3412 5.93564 74.6788 4.69437 72.5352 4.69437ZM72.3086 11.5635C71.6969 11.5635 70.8417 11.2567 70.8417 10.4987C70.8417 9.53112 71.9065 9.16014 72.8259 9.16014C73.6471 9.16014 74.0351 9.33761 74.5344 9.57925C74.389 10.7413 73.3894 11.5635 72.3086 11.5635ZM82.9195 4.96809L80.7749 10.4024H80.7107L78.4848 4.96809H76.4695L79.8073 12.5631L77.9043 16.7882H79.8554L85 4.96809H82.9195ZM66.0691 12.9872H67.939V0.453195H66.0691V12.9872Z" fill="white"/>
</svg>
