<svg width="1372" height="43" viewBox="0 0 1372 43" fill="none" xmlns="http://www.w3.org/2000/svg">
<g clip-path="url(#clip0_2_8855)">
<path d="M32.6911 8.1442C32.6618 7.93061 32.4752 7.81211 32.3204 7.79921C32.1667 7.78631 29.1557 7.74056 29.1557 7.74056C29.1557 7.74056 26.6375 5.29517 26.3887 5.0464C26.1401 4.79764 25.6542 4.87274 25.4653 4.92906C25.463 4.93024 24.9924 5.07574 24.2004 5.32098C24.0678 4.89152 23.873 4.36348 23.5949 3.8331C22.6984 2.12227 21.3854 1.21757 19.7989 1.21523C19.7966 1.21523 19.7954 1.21523 19.793 1.21523C19.6827 1.21523 19.5736 1.22579 19.4634 1.23517C19.4164 1.17885 19.3695 1.1237 19.3202 1.06972C18.629 0.330476 17.7431 -0.0297603 16.6812 0.00192169C14.6324 0.0605921 12.5919 1.54026 10.9374 4.16869C9.77334 6.01798 8.88739 8.34137 8.6363 10.1402C6.2836 10.8688 4.63848 11.3781 4.60211 11.3899C3.41462 11.763 3.37707 11.7993 3.22218 12.9188C3.10719 13.7648 0 37.7916 0 37.7916L26.0391 42.2951L37.3249 39.4894C37.3249 39.4894 32.7205 8.35779 32.6911 8.1442ZM22.8967 5.72463C22.2971 5.91003 21.6153 6.12125 20.8761 6.35006C20.8609 5.31277 20.7376 3.86948 20.2542 2.62214C21.809 2.91667 22.574 4.67561 22.8967 5.72463ZM19.5138 6.77249C18.1491 7.19489 16.66 7.65604 15.1663 8.1184C15.5864 6.50964 16.3831 4.90794 17.3618 3.85774C17.7255 3.467 18.2347 3.03166 18.8379 2.7829C19.4046 3.96569 19.5279 5.64015 19.5138 6.77249ZM16.7222 1.36542C17.2033 1.35486 17.6081 1.46047 17.9543 1.68811C17.4005 1.9756 16.8654 2.38864 16.3632 2.92723C15.0618 4.32359 14.0645 6.49087 13.6667 8.58188C12.4264 8.96557 11.2131 9.34228 10.096 9.68727C10.8012 6.39583 13.5599 1.45695 16.7222 1.36542Z" fill="#95BF47"/>
<path d="M32.3215 7.80041C32.1678 7.78751 29.1568 7.74176 29.1568 7.74176C29.1568 7.74176 26.6387 5.29636 26.3899 5.0476C26.2973 4.95489 26.1717 4.90678 26.0402 4.88684L26.0414 42.294L37.3261 39.4895C37.3261 39.4895 32.7217 8.35899 32.6923 8.1454C32.6629 7.93181 32.4752 7.81331 32.3215 7.80041Z" fill="#5E8E3E"/>
<path d="M19.7851 13.6029L18.4745 18.5065C18.4745 18.5065 17.0124 17.8412 15.2793 17.9503C12.7376 18.1111 12.7106 19.714 12.7365 20.1165C12.875 22.3096 18.6446 22.7883 18.9685 27.9255C19.2231 31.9667 16.8246 34.7313 13.369 34.9495C9.22095 35.2112 6.9375 32.7646 6.9375 32.7646L7.8164 29.0262C7.8164 29.0262 10.1151 30.7605 11.955 30.6443C13.1566 30.568 13.586 29.5906 13.5426 28.8994C13.3619 26.0386 8.66357 26.2076 8.36673 21.5069C8.11676 17.5514 10.7147 13.543 16.4468 13.1816C18.6551 13.0397 19.7851 13.6029 19.7851 13.6029Z" fill="white"/>
<path d="M52.1866 23.8711C50.8889 23.167 50.222 22.5735 50.222 21.7576C50.222 20.7195 51.1484 20.0525 52.5951 20.0525C54.2792 20.0525 55.7828 20.7567 55.7828 20.7567L56.9688 17.1232C56.9688 17.1232 55.8783 16.2701 52.6684 16.2701C48.2016 16.2701 45.1058 18.8282 45.1058 22.4244C45.1058 24.4635 46.5513 26.0207 48.4797 27.1322C50.037 28.0213 50.5933 28.6522 50.5933 29.5786C50.5933 30.5423 49.8147 31.3209 48.3692 31.3209C46.2149 31.3209 44.1805 30.2082 44.1805 30.2082L42.9201 33.8417C42.9201 33.8417 44.7997 35.1022 47.9618 35.1022C52.559 35.1022 55.8585 32.8408 55.8585 28.7627C55.8574 26.577 54.1896 25.0198 52.1866 23.8711Z" fill="black"/>
<path d="M70.501 16.234C68.2394 16.234 66.46 17.3094 65.089 18.9399L65.0144 18.9026L66.979 8.63409H61.8628L56.8955 34.7693H62.0117L63.7168 25.8356C64.3836 22.4617 66.1259 20.3866 67.7576 20.3866C68.9063 20.3866 69.3521 21.1651 69.3521 22.2778C69.3521 22.9819 69.2776 23.835 69.1298 24.5392L67.2024 34.7705H72.3189L74.3202 24.2051C74.543 23.0925 74.6917 21.7588 74.6917 20.8684C74.6896 17.9762 73.1698 16.234 70.501 16.234Z" fill="black"/>
<path d="M86.2556 16.2339C80.101 16.2339 76.0244 21.7948 76.0244 27.9852C76.0244 31.9516 78.4705 35.1394 83.068 35.1394C89.1105 35.1394 93.1885 29.7275 93.1885 23.388C93.1885 19.7184 91.0378 16.2339 86.2556 16.2339ZM83.7348 31.2113C81.9923 31.2113 81.2507 29.7286 81.2507 27.8746C81.2507 24.9464 82.7712 20.1642 85.5514 20.1642C87.368 20.1642 87.9601 21.7214 87.9601 23.2414C87.9601 26.3919 86.4417 31.2113 83.7348 31.2113Z" fill="black"/>
<path d="M106.275 16.234C102.821 16.234 100.862 19.274 100.862 19.274H100.788L101.085 16.5308H96.5625C96.3404 18.3848 95.9316 21.2013 95.5248 23.3148L91.9657 42.0352H97.082L98.4897 34.4726H98.6018C98.6018 34.4726 99.6514 35.1395 101.605 35.1395C107.61 35.1395 111.539 28.9863 111.539 22.7574C111.539 19.3113 110.019 16.234 106.275 16.234ZM101.381 31.2848C100.053 31.2848 99.2673 30.5434 99.2673 30.5434L100.12 25.7613C100.714 22.5735 102.382 20.4599 104.162 20.4599C105.719 20.4599 106.2 21.9054 106.2 23.2776C106.2 26.5771 104.236 31.2848 101.381 31.2848Z" fill="black"/>
<path d="M118.842 8.89368C117.212 8.89368 115.914 10.1914 115.914 11.8591C115.914 13.3791 116.878 14.4173 118.323 14.4173H118.397C119.992 14.4173 121.363 13.3419 121.4 11.4518C121.4 9.96903 120.399 8.89368 118.842 8.89368Z" fill="black"/>
<path d="M111.688 34.7694H116.802L120.288 16.6426H115.135L111.688 34.7694Z" fill="black"/>
<path d="M133.3 16.6051H129.741L129.926 15.752C130.223 14.0098 131.261 12.4525 132.966 12.4525C133.876 12.4525 134.597 12.7121 134.597 12.7121L135.598 8.70851C135.598 8.70851 134.708 8.26392 132.817 8.26392C131 8.26392 129.185 8.78295 127.813 9.9689C126.07 11.4517 125.254 13.6013 124.847 15.752L124.7 16.6051H122.326L121.585 20.461H123.958L121.252 34.7704H126.368L129.074 20.461H132.596L133.3 16.6051Z" fill="black"/>
<path d="M145.608 16.6426C145.608 16.6426 142.41 24.6998 140.974 29.098H140.899C140.802 27.6816 139.639 16.6426 139.639 16.6426H134.263L137.342 33.2866C137.416 33.6567 137.379 33.8802 137.23 34.1397C136.636 35.2884 135.636 36.4011 134.449 37.2169C133.486 37.921 132.411 38.3656 131.559 38.6624L132.967 43C134.005 42.7777 136.155 41.9247 137.971 40.2196C140.307 38.0327 142.457 34.6588 144.681 30.0616L150.946 16.6414H145.608V16.6426Z" fill="black"/>
</g>
<g clip-path="url(#clip1_2_8855)">
<path d="M256.438 14.4338C249.979 14.4338 244.933 19.3739 244.933 25.9872C244.933 32.6006 249.852 37.4984 256.438 37.4984C263.023 37.4984 268.028 32.516 268.028 25.9449C268.028 19.4162 263.109 14.4338 256.438 14.4338ZM256.481 32.7323C252.803 32.7323 250.108 29.8541 250.108 25.9888C250.108 22.0797 252.76 19.2031 256.438 19.2031C260.159 19.2031 262.852 22.1236 262.852 25.9888C262.852 29.8541 260.159 32.7323 256.481 32.7323ZM269.438 19.4601H272.646V37.0707H277.778V14.8631H269.438V19.4601ZM232.018 19.2015C234.713 19.2015 236.851 20.8764 237.663 23.3676H243.095C242.111 18.0421 237.749 14.4338 232.062 14.4338C225.604 14.4338 220.557 19.3739 220.557 25.9888C220.557 32.6038 225.476 37.5 232.062 37.5C237.621 37.5 242.069 33.8917 243.053 28.5223H237.663C236.893 31.0135 234.755 32.7323 232.06 32.7323C228.339 32.7323 225.731 29.8541 225.731 25.9888C225.733 22.0797 228.299 19.2015 232.018 19.2015ZM366.944 23.8408L363.181 23.283C361.385 23.0261 360.102 22.4244 360.102 21.0065C360.102 19.4601 361.771 18.6877 364.036 18.6877C366.517 18.6877 368.1 19.7609 368.442 21.522H373.403C372.846 17.0551 369.425 14.4354 364.165 14.4354C358.734 14.4354 355.141 17.2274 355.141 21.1788C355.141 24.9579 357.494 27.1499 362.24 27.8361L366.004 28.3938C367.843 28.6508 368.87 29.3825 368.87 30.7566C368.87 32.5176 367.073 33.2478 364.593 33.2478C361.556 33.2478 359.845 32.0022 359.589 30.1126H354.543C355.014 34.4511 358.391 37.5 364.55 37.5C370.153 37.5 373.872 34.9226 373.872 30.498C373.872 26.5466 371.179 24.4847 366.944 23.8408ZM275.212 5.71465C273.33 5.71465 271.918 7.0887 271.918 8.97823C271.918 10.8678 273.329 12.2418 275.212 12.2418C277.094 12.2418 278.506 10.8678 278.506 8.97823C278.506 7.0887 277.094 5.71465 275.212 5.71465ZM350.523 22.4667C350.523 17.6567 347.615 14.4354 341.457 14.4354C335.641 14.4354 332.391 17.3998 331.748 21.9529H336.838C337.095 20.1918 338.463 18.7316 341.371 18.7316C343.981 18.7316 345.264 19.891 345.264 21.3089C345.264 23.1562 342.911 23.6278 340.003 23.9286C336.068 24.3579 331.193 25.7319 331.193 30.8867C331.193 34.882 334.145 37.4577 338.849 37.4577C342.527 37.4577 344.836 35.9113 345.991 33.4624C346.162 35.6528 347.787 37.0707 350.055 37.0707H353.048V32.4754H350.524V22.4667H350.523ZM345.477 28.0507C345.477 31.0151 342.911 33.2055 339.788 33.2055C337.863 33.2055 336.238 32.3892 336.238 30.672C336.238 28.4817 338.847 27.88 341.242 27.6231C343.551 27.4084 344.834 26.893 345.477 25.9043V28.0507ZM318.235 14.4338C315.369 14.4338 312.974 15.6371 311.263 17.6551V5.5H306.132V37.0707H311.178V34.1502C312.888 36.2544 315.327 37.5 318.235 37.5C324.393 37.5 329.055 32.6038 329.055 25.9888C329.055 19.3739 324.307 14.4338 318.235 14.4338ZM317.465 32.7323C313.787 32.7323 311.092 29.8541 311.092 25.9888C311.092 22.1236 313.829 19.2031 317.507 19.2031C321.228 19.2031 323.836 22.0813 323.836 25.9888C323.836 29.8541 321.143 32.7323 317.465 32.7323ZM293.857 14.4338C290.522 14.4338 288.34 15.8078 287.057 17.7413V14.8631H281.967V37.0691H287.099V25.0002C287.099 21.6065 289.237 19.2015 292.402 19.2015C295.353 19.2015 297.191 21.3057 297.191 24.3562V37.0707H302.323V23.9709C302.325 18.3852 299.46 14.4338 293.857 14.4338ZM398.335 25.2587C398.335 18.9023 393.717 14.4354 387.515 14.4354C380.929 14.4354 376.096 19.4178 376.096 25.9888C376.096 32.9046 381.271 37.5 387.6 37.5C392.947 37.5 397.138 34.321 398.206 29.8118H392.86C392.09 31.7875 390.208 32.9046 387.684 32.9046C384.391 32.9046 381.91 30.8428 381.355 27.2344H398.334V25.2587H398.335ZM381.655 23.5399C382.469 20.4471 384.778 18.9446 387.429 18.9446C390.337 18.9446 392.561 20.6195 393.074 23.5399H381.655Z" fill="#0052FF"/>
</g>
<g clip-path="url(#clip2_2_8855)">
<path d="M488.569 10.2649L477.952 17.0297L488.569 23.7946L477.952 30.5594L467.335 23.758L477.952 16.9931L467.335 10.2649L477.952 3.5L488.569 10.2649ZM477.897 32.7351L488.514 25.9703L499.131 32.7351L488.514 39.5L477.897 32.7351ZM488.569 23.758L499.186 16.9931L488.569 10.2649L499.131 3.5L509.748 10.2649L499.131 17.0297L509.748 23.7946L499.131 30.5594L488.569 23.758Z" fill="#0061FF"/>
<path d="M518.077 10.2649H526.662C532.136 10.2649 536.657 13.4279 536.657 20.6499V22.1674C536.657 29.4442 532.429 32.7169 526.827 32.7169H518.077V10.2649ZM522.873 14.3421V28.6214H526.553C529.664 28.6214 531.751 26.592 531.751 22.076V20.8876C531.751 16.3716 529.555 14.3421 526.388 14.3421H522.873ZM539.201 14.5615H543.045L543.668 18.785C544.4 15.9145 546.267 14.3787 549.654 14.3787H550.843V19.2238H548.866C544.967 19.2238 544.016 20.5767 544.016 24.4163V32.7718H539.275V14.5615H539.201ZM551.795 24.0323V23.5204C551.795 17.432 555.694 14.1044 561.003 14.1044C566.421 14.1044 570.21 17.432 570.21 23.5204V24.0323C570.21 30.011 566.531 33.2289 561.003 33.2289C555.127 33.174 551.795 30.0293 551.795 24.0323ZM565.359 23.9775V23.5204C565.359 20.1379 563.657 18.1085 560.948 18.1085C558.294 18.1085 556.536 19.9734 556.536 23.5204V23.9775C556.536 27.2502 558.239 29.1151 560.948 29.1151C563.657 29.0602 565.359 27.2502 565.359 23.9775ZM572.7 14.5615H576.654L577.111 17.9988C578.063 15.6951 580.095 14.1044 583.097 14.1044C587.728 14.1044 590.785 17.432 590.785 23.5935V24.1054C590.785 30.0841 587.399 33.2471 583.097 33.2471C580.223 33.2471 578.246 31.949 577.276 29.8647V39.0613H572.645L572.7 14.5615ZM585.971 23.9775V23.5752C585.971 19.9551 584.104 18.1633 581.614 18.1633C578.96 18.1633 577.203 20.1928 577.203 23.5752V23.9226C577.203 27.1405 578.905 29.1699 581.559 29.1699C584.287 29.1151 585.971 27.3782 585.971 23.9775ZM597.796 29.4076L597.393 32.7352H593.33V8.47314H597.961V17.7794C598.986 15.4025 601.018 14.1044 603.892 14.1044C608.248 14.1593 611.47 17.1578 611.47 23.1913V23.7581C611.47 29.7916 608.413 33.2471 603.782 33.2471C600.725 33.174 598.748 31.7662 597.796 29.4076ZM606.601 23.7581V23.301C606.601 19.9734 604.789 18.1085 602.244 18.1085C599.645 18.1085 597.833 20.1928 597.833 23.3558V23.7581C597.833 27.1405 599.59 29.1151 602.189 29.1151C604.972 29.1151 606.601 27.3782 606.601 23.7581ZM613.502 24.0323V23.5204C613.502 17.432 617.401 14.1044 622.709 14.1044C628.128 14.1044 631.917 17.432 631.917 23.5204V24.0323C631.917 30.011 628.182 33.2289 622.709 33.2289C616.833 33.174 613.502 30.0293 613.502 24.0323ZM627.102 23.9775V23.5204C627.102 20.1379 625.4 18.1085 622.691 18.1085C620.037 18.1085 618.279 19.9734 618.279 23.5204V23.9775C618.279 27.2502 619.982 29.1151 622.691 29.1151C625.418 29.0602 627.102 27.2502 627.102 23.9775ZM638.122 23.301L631.734 14.5615H637.207L640.886 20.0282L644.62 14.5615H650.039L643.559 23.2461L650.386 32.7352H645.023L640.85 26.7017L636.786 32.7352H631.184L638.122 23.301Z" fill="black"/>
</g>
<g clip-path="url(#clip3_2_8855)">
<path d="M779.418 15.3648C779.418 14.5325 778.776 13.8497 777.878 13.8497C776.979 13.8497 776.337 14.5325 776.337 15.3648V27.6563C776.337 28.4886 776.979 29.1715 777.878 29.1715C778.798 29.1715 779.418 28.4886 779.418 27.6563V15.3648Z" fill="black"/>
<path d="M794.589 13.8496C793.691 13.8496 793.07 14.5325 793.07 15.3647V20.6143L793.156 25.309L791.294 20.9129L788.855 15.9195C788.106 14.3617 787.25 13.8496 786.031 13.8496C784.233 13.8496 783.442 14.9806 783.442 16.6024V27.6562C783.442 28.4886 784.062 29.1715 784.961 29.1715C785.86 29.1715 786.48 28.4886 786.48 27.6562L786.459 22.4709L786.394 17.1572L788.384 22.0226L790.845 27.1014C791.615 28.7232 792.428 29.1928 793.669 29.1928C795.274 29.1928 796.109 28.2111 796.109 26.3973V15.3647C796.109 14.5325 795.488 13.8496 794.589 13.8496Z" fill="black"/>
<path d="M807.469 16.9866L810.957 17.072C811.77 17.0933 812.412 16.4745 812.412 15.5782C812.412 14.6819 811.77 14.0631 810.957 14.0631L800.857 14.0417C800.066 14.0417 799.403 14.6606 799.403 15.5569C799.403 16.4531 800.066 17.072 800.857 17.0506L804.367 16.9866V27.6563C804.367 28.4887 805.008 29.1716 805.907 29.1716C806.827 29.1716 807.469 28.4887 807.469 27.6563V16.9866Z" fill="black"/>
<path d="M817.808 28.9793H825.318C826.11 28.9793 826.752 28.3818 826.752 27.5495C826.752 26.696 826.11 26.0984 825.318 26.0984L818.792 26.1198V22.556H824.441C825.211 22.556 825.832 21.9798 825.832 21.1904C825.832 20.3794 825.211 19.8032 824.441 19.8032L818.792 19.8459V16.9011H825.318C826.11 16.9011 826.752 16.3036 826.752 15.45C826.752 14.5964 826.11 14.0203 825.318 14.0203L817.829 14.0416C816.46 14.0416 815.69 14.8098 815.69 16.1756V26.8454C815.69 28.211 816.46 28.9793 817.808 28.9793Z" fill="black"/>
<path d="M838.985 22.8976C841.018 22.3642 842.216 20.7851 842.216 18.6937C842.216 16.3677 840.697 14.0417 837.059 14.0417H832.352C830.983 14.0417 830.212 14.8099 830.212 16.1756V27.6563C830.212 28.4886 830.854 29.1715 831.796 29.1715C832.716 29.1715 833.379 28.4886 833.379 27.6563L833.358 23.6444H835.947L838.578 28.3819C839.006 29.1075 839.905 29.4061 840.74 28.9794C841.574 28.5313 841.809 27.6349 841.36 26.9095L838.985 22.8976ZM833.358 16.8798H837.081C838.343 16.8798 839.135 17.6694 839.135 18.8431C839.135 19.9954 838.386 20.8491 837.124 20.8491H833.358V16.8798Z" fill="black"/>
<path d="M851.666 29.2568C854.79 29.2568 856.801 27.8485 857.486 25.5651C857.85 24.2633 857.08 23.3245 855.924 23.3245C855.218 23.3245 854.747 23.6872 854.469 24.4768C854.041 25.6719 852.993 26.4188 851.495 26.4188C849.12 26.4188 848.093 24.8182 848.093 21.4892C848.093 18.2243 849.141 16.6665 851.495 16.6665C852.971 16.6665 853.827 17.2854 854.362 18.7151C854.662 19.5261 855.154 19.8888 855.881 19.8888C856.994 19.8888 857.807 18.9925 857.465 17.7549C856.78 15.2368 854.79 13.8284 851.58 13.8284C847.173 13.8284 844.926 16.5172 844.926 21.4892C844.926 26.504 847.173 29.2568 851.666 29.2568Z" fill="black"/>
<path d="M866.879 29.2142C871.415 29.2142 873.662 26.4399 873.662 21.4892C873.662 16.4958 871.351 13.743 866.879 13.743C862.386 13.743 860.139 16.5384 860.117 21.4892C860.117 26.4613 862.407 29.2142 866.879 29.2142ZM866.879 26.3547C864.354 26.3547 863.263 24.7543 863.263 21.4892C863.263 18.1816 864.376 16.5811 866.857 16.5811C869.361 16.5811 870.538 18.1816 870.516 21.4892C870.516 24.7754 869.404 26.3547 866.879 26.3547Z" fill="black"/>
<path d="M893.58 16.5171C893.58 14.8313 892.532 13.8283 890.906 13.8283C889.579 13.8283 888.573 14.5539 888.081 16.2183L886.434 21.5745L885.342 25.437L884.294 21.5745L882.539 16.2183C882.047 14.6605 881.191 13.8283 879.694 13.8283C878.046 13.8283 877.019 14.8099 877.019 16.5171V27.6563C877.019 28.4886 877.618 29.1715 878.495 29.1715C879.373 29.1715 879.972 28.4886 879.972 27.6563L879.95 22.2788L879.801 16.5171L881.491 22.4069L883.288 27.6136C883.673 28.7659 884.401 29.1502 885.342 29.1502C886.22 29.1502 886.926 28.83 887.29 27.6563L889.001 22.4069L890.82 16.4744L890.649 22.2788V27.6563C890.649 28.4886 891.269 29.1715 892.125 29.1715C893.002 29.1715 893.602 28.4886 893.602 27.6563L893.58 16.5171Z" fill="black"/>
<path d="M754.02 23.5056C754.02 23.8614 753.88 24.2024 753.631 24.4538C753.381 24.7052 753.043 24.8466 752.69 24.8466C752.337 24.8466 751.999 24.7052 751.749 24.4538C751.5 24.2024 751.36 23.8614 751.36 23.5056V11.5268C751.36 11.1712 751.5 10.8301 751.749 10.5787C751.999 10.3272 752.337 10.1859 752.69 10.1859C753.043 10.1859 753.381 10.3272 753.631 10.5787C753.88 10.8301 754.02 11.1712 754.02 11.5268V23.5056ZM753.559 31.8057C753.383 31.9829 748.435 36.1384 739.364 36.1384C730.293 36.1384 725.378 32.0051 725.169 31.8277C725.038 31.7159 724.929 31.5789 724.85 31.4248C724.771 31.2704 724.723 31.1021 724.709 30.9291C724.695 30.7562 724.714 30.5821 724.767 30.4168C724.82 30.2516 724.904 30.0983 725.015 29.966C725.245 29.6983 725.57 29.533 725.921 29.5059C726.271 29.4789 726.617 29.5927 726.885 29.822C726.962 29.8775 731.382 33.4899 739.353 33.4899C747.324 33.4899 751.777 29.8553 751.821 29.822C752.092 29.5946 752.439 29.4824 752.79 29.5094C753.142 29.5363 753.468 29.7001 753.701 29.966C753.926 30.2299 754.038 30.5723 754.013 30.9187C753.988 31.2652 753.829 31.588 753.57 31.8167L753.559 31.8057ZM724.697 11.5268C724.716 11.17 724.876 10.8357 725.139 10.5969C725.403 10.3582 725.75 10.2343 726.104 10.2524C726.432 10.2712 726.742 10.4118 726.973 10.6471C727.205 10.8824 727.342 11.1958 727.357 11.5268V23.4836C727.357 23.8391 727.217 24.1802 726.968 24.4316C726.718 24.6832 726.38 24.8244 726.027 24.8244C725.674 24.8244 725.336 24.6832 725.086 24.4316C724.837 24.1802 724.697 23.8391 724.697 23.4836V11.5268ZM731.371 8.86725C731.39 8.51051 731.55 8.17621 731.813 7.93743C732.077 7.69863 732.424 7.57477 732.778 7.5929C733.106 7.61169 733.416 7.7523 733.647 7.98761C733.879 8.22293 734.016 8.53628 734.031 8.86725V26.5974C734.031 26.9531 733.891 27.2941 733.642 27.5455C733.392 27.7969 733.054 27.9381 732.701 27.9381C732.348 27.9381 732.01 27.7969 731.76 27.5455C731.511 27.2941 731.371 26.9531 731.371 26.5974V8.86725ZM738.078 8.20237C738.078 7.84676 738.218 7.50571 738.467 7.25426C738.717 7.0028 739.055 6.86153 739.408 6.86153C739.761 6.86153 740.099 7.0028 740.349 7.25426C740.598 7.50571 740.738 7.84676 740.738 8.20237V27.4839C740.738 27.8395 740.598 28.1805 740.349 28.4321C740.099 28.6835 739.761 28.8247 739.408 28.8247C739.055 28.8247 738.717 28.6835 738.467 28.4321C738.218 28.1805 738.078 27.8395 738.078 27.4839V8.20237ZM744.675 8.86725C744.675 8.51165 744.815 8.1706 745.064 7.91913C745.314 7.66768 745.652 7.52641 746.005 7.52641C746.358 7.52641 746.696 7.66768 746.946 7.91913C747.195 8.1706 747.335 8.51165 747.335 8.86725V26.5974C747.335 26.9531 747.195 27.2941 746.946 27.5455C746.696 27.7969 746.358 27.9381 746.005 27.9381C745.652 27.9381 745.314 27.7969 745.064 27.5455C744.815 27.2941 744.675 26.9531 744.675 26.5974V8.86725ZM754.383 1.55358H724.389C723.735 1.5492 723.087 1.67479 722.482 1.92316C721.877 2.17152 721.326 2.53779 720.861 3.00099C720.396 3.46418 720.027 4.0152 719.774 4.62252C719.521 5.22982 719.389 5.88147 719.386 6.54018V36.4598C719.389 37.1184 719.521 37.7702 719.774 38.3775C720.027 38.9847 720.396 39.5358 720.861 39.999C721.326 40.4621 721.877 40.8285 722.482 41.0768C723.087 41.3252 723.735 41.4507 724.389 41.4463H754.383C755.036 41.4507 755.683 41.3256 756.288 41.0778C756.892 40.8302 757.443 40.4649 757.907 40.0028C758.372 39.5409 758.741 38.9911 758.995 38.385C759.249 37.7791 759.382 37.1286 759.386 36.4709V6.54018C759.383 5.88242 759.252 5.23167 758.999 4.62509C758.747 4.0185 758.378 3.46798 757.915 3.00492C757.451 2.54187 756.902 2.17537 756.298 1.92635C755.694 1.67733 755.047 1.55066 754.394 1.55358" fill="black"/>
</g>
<g clip-path="url(#clip4_2_8855)">
<path d="M1062.83 1.5H962.83V41.5H1062.83V1.5Z" fill="#EC1D24"/>
<path d="M1059.91 32.3461V38.4231H1048.68V4.5769H1054.75V32.3461H1059.91ZM1011.83 21.1923C1011.29 21.4231 1010.83 21.5 1010.37 21.5V10.6538C1010.83 10.6538 1014.45 10.8077 1014.45 16.0384C1014.45 18.7308 1013.22 20.5 1011.83 21.1923ZM993.984 27.8077L995.677 13.3461L997.446 27.8077H993.984ZM1047.6 10.7308V4.5769H1030.45L1027.6 25.1923L1024.83 4.5769H1018.6L1019.29 10.0384C1018.6 8.65383 1016.06 4.5769 1010.45 4.5769H1004.22V34.5769L999.754 4.5769H991.6L986.907 35.6538V4.5769H979.215L976.446 22.0384L973.677 4.5769H965.907V38.4231H971.984V22.1154L974.83 38.4231H978.061L980.83 22.1154V38.4231H992.6L993.292 33.1923H998.061L998.754 38.4231H1010.29V27.4231L1011.68 27.1923L1014.68 38.4231H1020.68L1016.83 25.3461C1018.75 23.8846 1020.98 20.2692 1020.37 16.7308C1020.37 16.8077 1023.98 38.5 1023.98 38.5H1031.14L1035.98 7.8846V38.4231H1047.52V32.3461H1042.06V24.5769H1047.52V18.4231H1042.06V10.7308H1047.6Z" fill="#FEFEFE"/>
<path d="M962.83 1.5H985.907V41.5H962.83V1.5Z" fill="#EC1D24"/>
<path d="M987.061 38.4231V4.5769H979.215L976.446 22.0384L973.677 4.5769H965.907V38.4231H972.061V22.1154L974.83 38.4231H978.061L980.83 22.1154V38.4231H987.061Z" fill="#FEFEFE"/>
</g>
<g clip-path="url(#clip5_2_8855)">
<path d="M1218.85 30.7C1212.75 30.7 1208.78 26.33 1208.78 21.7818V21.2181C1208.78 16.5928 1212.75 12.3 1218.85 12.3C1224.96 12.3 1228.96 16.5928 1228.96 21.2181V21.7818C1228.96 26.33 1224.99 30.7 1218.85 30.7ZM1225.69 21.2663C1225.69 17.9515 1223.26 15.0029 1218.85 15.0029C1214.45 15.0029 1212.06 17.9563 1212.06 21.2663V21.6807C1212.06 24.9955 1214.48 28.0019 1218.85 28.0019C1223.22 28.0019 1225.69 24.9955 1225.69 21.6807V21.2663Z" fill="#3499CD"/>
<path d="M1149.85 30.0303L1147.57 25.7904H1137.45L1135.23 30.0303H1131.83L1141.15 12.9167H1143.85L1153.32 30.0303H1149.85ZM1142.42 16.2556L1138.67 23.4537H1146.3L1142.42 16.2556Z" fill="#010101"/>
<path d="M1168.03 30.7C1161.84 30.7 1158.96 27.3563 1158.96 22.9141V12.9167H1162.18V22.9622C1162.18 26.1229 1164.28 28.0019 1168.26 28.0019C1172.35 28.0019 1174.03 26.1229 1174.03 22.9622V12.9167H1177.27V22.8996C1177.27 27.1539 1174.55 30.7 1168.03 30.7Z" fill="#010101"/>
<path d="M1195.29 15.5907V30.0447H1192.05V15.5907H1184.52V12.9167H1202.83V15.5907H1195.29Z" fill="#010101"/>
<path d="M1257.8 30.0303V16.4868L1256.95 17.9804L1249.72 30.0255H1248.14L1241 17.9804L1240.14 16.4868V30.0303H1236.98V12.9167H1241.46L1248.26 24.6582L1249.07 26.1036L1249.87 24.6582L1256.6 12.9167H1261.03V30.0303H1257.8Z" fill="#010101"/>
<path d="M1285.51 30.0303L1283.22 25.7904H1273.11L1270.91 30.0303H1267.51L1276.83 12.9167H1279.52L1288.97 30.0303H1285.51ZM1278.07 16.2556L1274.32 23.4537H1281.96L1278.07 16.2556Z" fill="#010101"/>
<path d="M1302.02 15.5907V30.0447H1298.79V15.5907H1291.25V12.9167H1309.56V15.5907H1302.02Z" fill="#010101"/>
<path d="M1325.77 15.5907V30.0447H1322.53V15.5907H1314.99V12.9167H1333.31V15.5907H1325.77Z" fill="#010101"/>
<path d="M1341.28 30.0303V14.5355C1342.57 14.5355 1343.09 13.8417 1343.09 12.9167H1344.47V30.0303H1341.28Z" fill="#010101"/>
<path d="M1369.81 17.7492C1367.95 15.9925 1365.49 15.0081 1362.92 14.9981C1358.31 14.9981 1355.72 18.1346 1355.72 21.3964V21.7288C1355.72 24.9665 1358.34 27.9923 1363.15 27.9923C1365.67 27.9452 1368.09 26.9637 1369.91 25.2412L1371.85 27.2696C1369.43 29.5102 1366.23 30.7387 1362.92 30.7C1356.4 30.7 1352.43 26.4842 1352.43 21.8589V21.2952C1352.43 16.6699 1356.76 12.3 1363.08 12.3C1366.73 12.3 1370.04 13.8177 1371.82 15.716L1369.81 17.7492Z" fill="#010101"/>
<path d="M1220.99 18.255C1221.13 18.3448 1221.25 18.4619 1221.35 18.5994C1221.45 18.7369 1221.51 18.892 1221.55 19.0555C1221.58 19.2191 1221.58 19.3877 1221.55 19.5514C1221.51 19.7152 1221.45 19.8707 1221.35 20.0088L1218.4 24.5474C1218.31 24.6857 1218.2 24.8054 1218.06 24.8994C1217.93 24.9934 1217.77 25.06 1217.61 25.0954C1217.45 25.1307 1217.28 25.1341 1217.12 25.1054C1216.96 25.0767 1216.8 25.0164 1216.66 24.928C1216.38 24.7458 1216.19 24.4612 1216.12 24.1362C1216.05 23.8113 1216.11 23.4724 1216.3 23.1935L1219.25 18.6549C1219.43 18.376 1219.71 18.1797 1220.04 18.1093C1220.37 18.0388 1220.71 18.0999 1220.99 18.2791V18.255Z" fill="#010101"/>
</g>
<defs>
<clipPath id="clip0_2_8855">
<rect width="151.557" height="43" fill="white"/>
</clipPath>
<clipPath id="clip1_2_8855">
<rect width="177.778" height="32" fill="white" transform="translate(220.557 5.5)"/>
</clipPath>
<clipPath id="clip2_2_8855">
<rect width="183.051" height="36" fill="white" transform="translate(467.335 3.5)"/>
</clipPath>
<clipPath id="clip3_2_8855">
<rect width="174.444" height="40" fill="white" transform="translate(719.386 1.5)"/>
</clipPath>
<clipPath id="clip4_2_8855">
<rect width="100" height="40" fill="white" transform="translate(962.83 1.5)"/>
</clipPath>
<clipPath id="clip5_2_8855">
<rect width="240" height="18.4" fill="white" transform="translate(1131.83 12.3)"/>
</clipPath>
</defs>
</svg>
