<svg width="70" height="7" viewBox="0 0 70 7" fill="none" xmlns="http://www.w3.org/2000/svg">
<path d="M0 0.298294V6.36081H2.18889C3.99546 6.36081 5.04159 5.24745 5.04159 3.31064C5.04159 1.40324 3.98706 0.298294 2.18889 0.298294H0ZM0.941097 1.15536H2.08386C3.34005 1.15536 4.08369 1.95362 4.08369 3.32325C4.08369 4.71389 3.35266 5.50374 2.08386 5.50374H0.941097V1.15536Z" fill="white"/>
<path d="M8.24552 6.44903C9.58154 6.44903 10.4008 5.55415 10.4008 4.07108C10.4008 2.59642 9.57734 1.69734 8.24552 1.69734C6.9095 1.69734 6.08604 2.59642 6.08604 4.07108C6.08604 5.55415 6.9053 6.44903 8.24552 6.44903ZM8.24552 5.64658C7.45987 5.64658 7.01873 5.071 7.01873 4.07108C7.01873 3.07957 7.45987 2.49979 8.24552 2.49979C9.02697 2.49979 9.47231 3.07957 9.47231 4.07108C9.47231 5.0668 9.02697 5.64658 8.24552 5.64658Z" fill="white"/>
<path d="M17.3775 1.78556H16.4742L15.6592 5.27686H15.5878L14.6467 1.78556H13.7812L12.8401 5.27686H12.7729L11.9536 1.78556H11.0377L12.2981 6.36081H13.2266L14.1677 2.99134H14.2391L15.1844 6.36081H16.1213L17.3775 1.78556Z" fill="white"/>
<path d="M18.4178 6.36081H19.3211V3.68456C19.3211 2.97034 19.7454 2.525 20.4134 2.525C21.0814 2.525 21.4007 2.89051 21.4007 3.62574V6.36081H22.304V3.39887C22.304 2.31073 21.741 1.69734 20.7201 1.69734C20.0311 1.69734 19.5773 2.00403 19.3547 2.51239H19.2874V1.78556H18.4178V6.36081Z" fill="white"/>
<path d="M23.7266 6.36081H24.6298V0H23.7266V6.36081Z" fill="white"/>
<path d="M28.027 6.44903C29.3631 6.44903 30.1823 5.55415 30.1823 4.07108C30.1823 2.59642 29.3589 1.69734 28.027 1.69734C26.691 1.69734 25.8676 2.59642 25.8676 4.07108C25.8676 5.55415 26.6868 6.44903 28.027 6.44903ZM28.027 5.64658C27.2414 5.64658 26.8002 5.071 26.8002 4.07108C26.8002 3.07957 27.2414 2.49979 28.027 2.49979C28.8085 2.49979 29.2538 3.07957 29.2538 4.07108C29.2538 5.0668 28.8085 5.64658 28.027 5.64658Z" fill="white"/>
<path d="M32.8737 5.67599C32.3821 5.67599 32.025 5.43651 32.025 5.02478C32.025 4.62146 32.3107 4.40719 32.9409 4.36518L34.0585 4.29375V4.67607C34.0585 5.24325 33.5543 5.67599 32.8737 5.67599ZM32.6426 6.43643C33.2434 6.43643 33.7434 6.17595 34.0164 5.718H34.0879V6.36081H34.9575V3.23502C34.9575 2.26872 34.3105 1.69734 33.1636 1.69734C32.1258 1.69734 31.3864 2.20149 31.294 2.98714H32.1679C32.2687 2.66364 32.6174 2.47878 33.1216 2.47878C33.7392 2.47878 34.0585 2.75187 34.0585 3.23502V3.62994L32.8191 3.70137C31.7309 3.76859 31.1175 4.24334 31.1175 5.0668C31.1175 5.90286 31.7603 6.43643 32.6426 6.43643Z" fill="white"/>
<path d="M38.0228 6.43643C38.653 6.43643 39.1866 6.13814 39.4597 5.63818H39.5311V6.36081H40.3966V0H39.4933V2.51239H39.4261C39.1782 2.00823 38.6488 1.70994 38.0228 1.70994C36.8675 1.70994 36.1238 2.62583 36.1238 4.07108C36.1238 5.52054 36.8591 6.43643 38.0228 6.43643ZM38.2791 2.52079C39.0353 2.52079 39.5101 3.12158 39.5101 4.07528C39.5101 5.03319 39.0395 5.62557 38.2791 5.62557C37.5145 5.62557 37.0565 5.04159 37.0565 4.07108C37.0565 3.10898 37.5187 2.52079 38.2791 2.52079Z" fill="white"/>
<path d="M46.2541 6.44903C47.5901 6.44903 48.4093 5.55415 48.4093 4.07108C48.4093 2.59642 47.5859 1.69734 46.2541 1.69734C44.918 1.69734 44.0946 2.59642 44.0946 4.07108C44.0946 5.55415 44.9138 6.44903 46.2541 6.44903ZM46.2541 5.64658C45.4684 5.64658 45.0273 5.071 45.0273 4.07108C45.0273 3.07957 45.4684 2.49979 46.2541 2.49979C47.0355 2.49979 47.4808 3.07957 47.4808 4.07108C47.4808 5.0668 47.0355 5.64658 46.2541 5.64658Z" fill="white"/>
<path d="M49.605 6.36081H50.5083V3.68456C50.5083 2.97034 50.9327 2.525 51.6007 2.525C52.2687 2.525 52.588 2.89051 52.588 3.62574V6.36081H53.4913V3.39887C53.4913 2.31073 52.9283 1.69734 51.9074 1.69734C51.2183 1.69734 50.7646 2.00403 50.5419 2.51239H50.4747V1.78556H49.605V6.36081Z" fill="white"/>
<path d="M57.6514 0.647004V1.80657H56.9246V2.56701H57.6514V5.15082C57.6514 6.0331 58.0505 6.38601 59.0547 6.38601C59.2311 6.38601 59.3992 6.36501 59.5462 6.3398V5.58776C59.4202 5.60037 59.3403 5.60877 59.2017 5.60877C58.7522 5.60877 58.5547 5.3987 58.5547 4.91975V2.56701H59.5462V1.80657H58.5547V0.647004H57.6514Z" fill="white"/>
<path d="M60.7587 6.36081H61.662V3.68876C61.662 2.99554 62.0737 2.5292 62.8132 2.5292C63.4518 2.5292 63.7921 2.89891 63.7921 3.62994V6.36081H64.6954V3.40727C64.6954 2.31913 64.0946 1.70154 63.1199 1.70154C62.4308 1.70154 61.9477 2.00823 61.725 2.52079H61.6536V0H60.7587V6.36081Z" fill="white"/>
<path d="M67.9539 2.46618C68.6219 2.46618 69.0588 2.93252 69.0799 3.65095H66.7691C66.8195 2.93673 67.2859 2.46618 67.9539 2.46618ZM69.0757 5.12562C68.9076 5.48273 68.5337 5.68019 67.9875 5.68019C67.2649 5.68019 66.7985 5.17183 66.7691 4.36938V4.31896H69.9999V4.00386C69.9999 2.56701 69.2311 1.69734 67.9581 1.69734C66.6683 1.69734 65.849 2.62583 65.849 4.08789C65.849 5.54995 66.6515 6.44903 67.9623 6.44903C69.0084 6.44903 69.7395 5.94487 69.9453 5.12562H69.0757Z" fill="white"/>
</svg>
