<svg width="40" height="7" viewBox="0 0 40 7" fill="none" xmlns="http://www.w3.org/2000/svg">
<path d="M6.31633 3.56286C6.31633 4.42129 6.06228 5.10456 5.55316 5.6147C4.97541 6.22114 4.22146 6.52436 3.29542 6.52436C2.4083 6.52436 1.65333 6.21704 1.03358 5.60241C0.412802 4.98675 0.102413 4.22461 0.102413 3.31496C0.102413 2.40428 0.412802 1.64214 1.03358 1.02751C1.65333 0.411854 2.4083 0.10454 3.29542 0.10454C3.7359 0.10454 4.15693 0.190588 4.55644 0.36166C4.95697 0.533756 5.2776 0.762194 5.51731 1.048L4.97746 1.58887C4.57078 1.10229 4.01044 0.859511 3.29439 0.859511C2.64698 0.859511 2.08767 1.08692 1.61543 1.54175C1.14319 1.99658 0.907579 2.58765 0.907579 3.31393C0.907579 4.04022 1.14319 4.63129 1.61543 5.08612C2.08767 5.54095 2.64698 5.76836 3.29439 5.76836C3.98073 5.76836 4.55336 5.53992 5.01126 5.08202C5.30833 4.78393 5.48043 4.36905 5.52653 3.83739H3.29439V3.09882H6.27228C6.30301 3.25964 6.31633 3.41432 6.31633 3.56286Z" fill="white"/>
<path d="M11.0388 0.995811H8.24022V2.94419H10.7643V3.68277H8.24022V5.63115H11.0388V6.38715H7.45042V0.240841H11.0388V0.995811Z" fill="white"/>
<path d="M14.369 6.38715H13.5792V0.995811H11.8623V0.240841H16.0859V0.995811H14.369V6.38715Z" fill="white"/>
<path d="M19.1416 6.38715V0.240841H19.9314V6.38715H19.1416Z" fill="white"/>
<path d="M23.4339 6.38715H22.6441V0.995811H20.9272V0.240841H25.1508V0.995811H23.4339V6.38715Z" fill="white"/>
<path d="M33.1458 5.59324C32.5415 6.21401 31.7906 6.5244 30.8922 6.5244C29.9938 6.5244 29.2429 6.21401 28.6396 5.59324C28.0352 4.97246 27.734 4.21237 27.734 3.31398C27.734 2.4156 28.0352 1.6555 28.6396 1.03473C29.2429 0.413951 29.9938 0.102538 30.8922 0.102538C31.7855 0.102538 32.5353 0.414975 33.1418 1.03883C33.7482 1.66268 34.0514 2.42072 34.0514 3.31398C34.0514 4.21237 33.7492 4.97246 33.1458 5.59324ZM29.2225 5.07797C29.6773 5.53895 30.2335 5.76841 30.8922 5.76841C31.5509 5.76841 32.1081 5.53792 32.5619 5.07797C33.0168 4.617 33.2452 4.029 33.2452 3.31398C33.2452 2.59896 33.0168 2.01097 32.5619 1.54999C32.1081 1.08902 31.5509 0.859559 30.8922 0.859559C30.2335 0.859559 29.6773 1.09004 29.2225 1.54999C28.7687 2.01097 28.5402 2.59896 28.5402 3.31398C28.5402 4.029 28.7687 4.617 29.2225 5.07797Z" fill="white"/>
<path d="M35.1598 6.38715V0.240841H36.1207L39.1078 5.02164H39.1416L39.1078 3.83745V0.240841H39.8976V6.38715H39.073L35.9476 1.37381H35.9138L35.9476 2.558V6.38715H35.1598Z" fill="white"/>
<path d="M6.31633 3.56286C6.31633 4.42129 6.06228 5.10456 5.55316 5.6147C4.97541 6.22114 4.22146 6.52436 3.29542 6.52436C2.4083 6.52436 1.65333 6.21704 1.03358 5.60241C0.412802 4.98675 0.102413 4.22461 0.102413 3.31496C0.102413 2.40428 0.412802 1.64214 1.03358 1.02751C1.65333 0.411854 2.4083 0.10454 3.29542 0.10454C3.7359 0.10454 4.15693 0.190588 4.55644 0.36166C4.95697 0.533756 5.2776 0.762194 5.51731 1.048L4.97746 1.58887C4.57078 1.10229 4.01044 0.859511 3.29439 0.859511C2.64698 0.859511 2.08767 1.08692 1.61543 1.54175C1.14319 1.99658 0.907579 2.58765 0.907579 3.31393C0.907579 4.04022 1.14319 4.63129 1.61543 5.08612C2.08767 5.54095 2.64698 5.76836 3.29439 5.76836C3.98073 5.76836 4.55336 5.53992 5.01126 5.08202C5.30833 4.78393 5.48043 4.36905 5.52653 3.83739H3.29439V3.09882H6.27228C6.30301 3.25964 6.31633 3.41432 6.31633 3.56286Z" stroke="white" stroke-width="0.2" stroke-miterlimit="10"/>
<path d="M11.0388 0.995811H8.24022V2.94419H10.7643V3.68277H8.24022V5.63115H11.0388V6.38715H7.45042V0.240841H11.0388V0.995811Z" stroke="white" stroke-width="0.2" stroke-miterlimit="10"/>
<path d="M14.369 6.38715H13.5792V0.995811H11.8623V0.240841H16.0859V0.995811H14.369V6.38715Z" stroke="white" stroke-width="0.2" stroke-miterlimit="10"/>
<path d="M19.1416 6.38715V0.240841H19.9314V6.38715H19.1416Z" stroke="white" stroke-width="0.2" stroke-miterlimit="10"/>
<path d="M23.4339 6.38715H22.6441V0.995811H20.9272V0.240841H25.1508V0.995811H23.4339V6.38715Z" stroke="white" stroke-width="0.2" stroke-miterlimit="10"/>
<path d="M33.1458 5.59324C32.5415 6.21401 31.7906 6.5244 30.8922 6.5244C29.9938 6.5244 29.2429 6.21401 28.6396 5.59324C28.0352 4.97246 27.734 4.21237 27.734 3.31398C27.734 2.4156 28.0352 1.6555 28.6396 1.03473C29.2429 0.413951 29.9938 0.102538 30.8922 0.102538C31.7855 0.102538 32.5353 0.414975 33.1418 1.03883C33.7482 1.66268 34.0514 2.42072 34.0514 3.31398C34.0514 4.21237 33.7492 4.97246 33.1458 5.59324ZM29.2225 5.07797C29.6773 5.53895 30.2335 5.76841 30.8922 5.76841C31.5509 5.76841 32.1081 5.53792 32.5619 5.07797C33.0168 4.617 33.2452 4.029 33.2452 3.31398C33.2452 2.59896 33.0168 2.01097 32.5619 1.54999C32.1081 1.08902 31.5509 0.859559 30.8922 0.859559C30.2335 0.859559 29.6773 1.09004 29.2225 1.54999C28.7687 2.01097 28.5402 2.59896 28.5402 3.31398C28.5402 4.029 28.7687 4.617 29.2225 5.07797Z" stroke="white" stroke-width="0.2" stroke-miterlimit="10"/>
<path d="M35.1598 6.38715V0.240841H36.1207L39.1078 5.02164H39.1416L39.1078 3.83745V0.240841H39.8976V6.38715H39.073L35.9476 1.37381H35.9138L35.9476 2.558V6.38715H35.1598Z" stroke="white" stroke-width="0.2" stroke-miterlimit="10"/>
</svg>
