<svg width="283" height="244" viewBox="0 0 283 244" fill="none" xmlns="http://www.w3.org/2000/svg">
<path d="M202.529 235.787C202.084 236.798 202.542 237.979 203.553 238.424C204.564 238.869 205.745 238.411 206.191 237.4L202.529 235.787ZM113.347 118.072L111.655 119.14L111.656 119.141L113.347 118.072ZM197.994 96.9976L196.018 96.6866L196.018 96.6869L197.994 96.9976ZM45.4047 42.2092C44.4513 42.7676 44.131 43.9931 44.6893 44.9465C45.2477 45.9 46.4732 46.2203 47.4266 45.6619L45.4047 42.2092ZM223.083 231.585C224.084 231.118 224.517 229.928 224.05 228.926C223.582 227.925 222.392 227.492 221.391 227.96L223.083 231.585ZM203.704 238.424L202.014 239.494C202.553 240.344 203.639 240.662 204.551 240.236L203.704 238.424ZM193.926 220.043C193.242 219.176 191.984 219.028 191.116 219.713C190.249 220.398 190.101 221.656 190.786 222.523L193.926 220.043ZM204.36 236.593C206.191 237.4 206.191 237.399 206.192 237.398C206.192 237.397 206.193 237.395 206.193 237.393C206.195 237.39 206.197 237.385 206.2 237.379C206.205 237.367 206.213 237.349 206.223 237.327C206.242 237.281 206.271 237.214 206.309 237.127C206.383 236.953 206.492 236.696 206.632 236.361C206.91 235.691 207.311 234.709 207.803 233.445C208.786 230.919 210.136 227.27 211.608 222.757C214.55 213.738 217.993 201.241 219.976 187.357C223.926 159.71 222.171 125.93 198.287 103.51L195.549 106.427C217.95 127.456 219.916 159.487 216.015 186.791C214.074 200.382 210.698 212.645 207.804 221.516C206.358 225.949 205.034 229.528 204.074 231.994C203.594 233.226 203.205 234.181 202.938 234.824C202.804 235.145 202.7 235.389 202.631 235.551C202.596 235.632 202.57 235.692 202.553 235.732C202.544 235.751 202.538 235.766 202.534 235.775C202.532 235.78 202.531 235.783 202.53 235.785C202.529 235.786 202.529 235.786 202.529 235.787C202.529 235.787 202.529 235.787 204.36 236.593ZM198.287 103.51C174.645 81.3175 149.387 78.6702 131.726 84.7899C122.94 87.8339 115.966 93.0801 112.129 99.2415C108.256 105.46 107.576 112.678 111.655 119.14L115.039 117.005C111.924 112.07 112.309 106.521 115.525 101.357C118.776 96.1356 124.915 91.3841 133.036 88.5705C149.185 82.9748 172.906 85.1725 195.549 106.427L198.287 103.51ZM111.656 119.141C115.582 125.357 122.679 130.005 130.98 132.806C139.312 135.619 149.065 136.646 158.584 135.448C177.649 133.048 196.15 121.61 199.97 97.3082L196.018 96.6869C192.551 118.741 175.923 129.233 158.084 131.478C149.152 132.602 140.008 131.631 132.259 129.015C124.478 126.389 118.308 122.18 115.039 117.004L111.656 119.141ZM199.97 97.3085C201.913 84.9622 197.044 72.92 187.952 62.5317C178.862 52.1453 165.438 43.2613 149.839 37.0783C118.669 24.7234 78.2806 22.9571 45.4047 42.2092L47.4266 45.6619C78.9841 27.1819 118.031 28.7747 148.364 40.7979C163.517 46.804 176.362 55.3638 184.941 65.1668C193.519 74.9681 197.721 85.8611 196.018 96.6866L199.97 97.3085ZM221.391 227.96L202.858 236.611L204.551 240.236L223.083 231.585L221.391 227.96ZM203.704 238.424C205.395 237.353 205.394 237.353 205.394 237.353C205.394 237.353 205.394 237.353 205.394 237.352C205.394 237.352 205.393 237.351 205.393 237.35C205.392 237.349 205.39 237.346 205.388 237.343C205.384 237.336 205.377 237.326 205.369 237.312C205.352 237.286 205.326 237.246 205.294 237.194C205.228 237.09 205.131 236.938 205.007 236.743C204.76 236.354 204.403 235.794 203.968 235.112C203.097 233.749 201.909 231.898 200.643 229.948C198.141 226.094 195.244 221.713 193.926 220.043L190.786 222.523C191.961 224.01 194.738 228.199 197.287 232.126C198.546 234.066 199.728 235.909 200.596 237.266C201.03 237.945 201.384 238.502 201.631 238.89C201.754 239.084 201.85 239.235 201.915 239.337C201.948 239.389 201.972 239.428 201.989 239.454C201.997 239.468 202.004 239.477 202.008 239.484C202.01 239.487 202.012 239.49 202.013 239.492C202.013 239.492 202.014 239.493 202.014 239.493C202.014 239.494 202.014 239.494 202.014 239.494C202.014 239.494 202.014 239.494 203.704 238.424Z" fill="#004EEB"/>
</svg>
